<svg width="1280" height="720" xmlns="http://www.w3.org/2000/svg" xmlns:xlink="http://www.w3.org/1999/xlink" overflow="hidden"><defs><clipPath id="clip0"><path d="M0 0 1280 0 1280 720 0 720Z" fill-rule="evenodd" clip-rule="evenodd"/></clipPath><linearGradient x1="600.792" y1="197.333" x2="703.208" y2="330.667" gradientUnits="userSpaceOnUse" spreadMethod="reflect" id="fill1"><stop offset="0" stop-color="#76B54C"/><stop offset="0.25" stop-color="#76B54C"/><stop offset="0.38" stop-color="#00B050"/><stop offset="1" stop-color="#43682B"/></linearGradient></defs><g clip-path="url(#clip0)"><rect x="0" y="0" width="1280" height="720" fill="#FFFF1C"/><path d="M48 209.315C48 86.5338 147.534-13 270.315-13L974.685-13C1097.47-13 1197 86.5338 1197 209.315L1197 510.685C1197 633.466 1097.47 733 974.685 733L270.315 733C147.534 733 48 633.466 48 510.685Z" fill="#FFFF00" fill-rule="evenodd" fill-opacity="0.521569"/><path d="M767.318 312 767.318 509.661 530.682 509.661 530.682 312 512 312 512 537.898 620.977 537.898C620.977 544.756 625.025 550 630.318 550L667.682 550C672.975 550 677.023 544.756 677.023 537.898L786 537.898 786 312 767.318 312Z" fill="#00B050" fill-rule="evenodd"/><path d="M755 292 543 292 543 498 755 498 755 292ZM561.706 316.235 642.765 316.235 642.765 473.765 561.706 473.765 561.706 316.235ZM736.294 473.765 655.235 473.765 655.235 316.235 736.294 316.235 736.294 473.765Z" fill="#00B050" fill-rule="evenodd"/><path d="M669 386 713 386 713 395 669 395Z" fill="#262626" fill-rule="evenodd"/><path d="M669 405 713 405 713 418 669 418Z" fill="#00B050" fill-rule="evenodd"/><path d="M671 367 700 367 700 376 671 376Z" fill-rule="evenodd"/><path d="M639.947 382.822C638.158 375.25 633.739 360.542 626.163 356.61 617.535 352.242 609.959 362.144 607.855 365.202 609.223 361.27 611.958 350.931 605.119 343.505 600.7 338.699 591.23 339.864 585.864 341.029 584.812 341.32 584.601 343.213 585.653 343.796 589.441 345.835 595.544 350.058 601.226 357.339 596.912 352.824 590.914 349.766 584.075 355.009 579.445 358.649 575.342 368.406 573.132 374.522 572.606 375.832 573.764 377.143 574.605 376.415 578.078 373.211 584.18 368.406 591.651 366.658 589.231 368.26 586.916 370.881 585.127 375.395 582.602 381.657 582.812 391.268 583.339 397.384 583.444 398.84 584.917 399.131 585.338 397.821 586.706 393.306 589.336 386.608 593.755 380.783 593.545 381.366 593.44 382.094 593.44 382.822 593.44 386.026 595.334 388.647 597.648 388.647 598.595 388.647 599.542 388.21 600.279 387.336 596.386 412.528 596.07 447.186 596.07 457.088 596.07 458.689 597.017 460 598.174 460L605.119 460C606.382 460 607.434 458.398 607.223 456.505 604.909 439.031 602.909 412.819 606.802 387.045 607.539 388.792 608.907 389.957 610.485 389.957 612.8 389.957 614.694 387.336 614.694 384.132 614.694 383.696 614.694 383.404 614.589 382.967 619.113 391.996 619.745 400.296 621.112 404.519 621.533 405.684 622.691 405.684 623.006 404.519 624.585 399.422 627.11 388.647 624.058 378.308 622.585 373.211 619.534 370.153 616.272 368.26 625.742 372.192 634.265 380.055 638.368 384.278 639.105 385.297 640.262 384.132 639.947 382.822Z" fill="#ED7D31" fill-rule="evenodd"/><path d="M587 199.5C587 206.404 582.523 212 577 212 571.477 212 567 206.404 567 199.5 567 192.596 571.477 187 577 187 582.523 187 587 192.596 587 199.5Z" fill="#FFC000" fill-rule="evenodd"/><path d="M708.7 285.491 664.3 285.491C666.7 265.011 675.7 242.954 688.9 224.049 691 220.898 691 215.778 688.6 213.021 686.2 210.264 682.3 210.264 680.2 213.415 672.4 224.443 655.6 252.013 652.3 285.885L632.2 285.885C629.8 273.282 625.9 265.798 614.2 248.862 612.1 245.711 608.2 245.317 605.8 248.468 603.4 251.225 603.1 256.346 605.5 259.497 614.5 272.494 618.1 278.402 619.9 285.491L595 285.491C588.4 285.491 583 292.581 583 301.246L583 317 721 317 721 301.246C720.7 292.581 715.3 285.491 708.7 285.491Z" fill="url(#fill1)" fill-rule="evenodd"/><path d="M591 153.8C591 163.04 584.925 179 577.5 179 570.075 179 564 163.04 564 153.8 564 144.56 570.075 137 577.5 137 584.925 137 591 144.56 591 153.8Z" fill="#FFC000" fill-rule="evenodd"/><path d="M564 245.2C564 235.96 570.075 220 577.5 220 584.925 220 591 235.96 591 245.2 591 254.44 584.925 262 577.5 262 570.075 262 564 254.44 564 245.2Z" fill="#FFC000" fill-rule="evenodd"/><path d="M552.287 162.178C558.687 166.762 566.771 181.347 563.066 189.265 559.361 197.183 545.213 195.933 538.813 191.349 532.413 186.765 530.055 176.347 533.761 168.429 537.466 160.511 545.887 157.594 552.287 162.178Z" fill="#FFC000" fill-rule="evenodd"/><path d="M602.347 236.822C596.147 232.238 588.316 217.653 591.905 209.735 595.495 201.818 609.2 203.068 615.4 207.652 621.599 212.235 623.884 222.653 620.294 230.571 616.705 238.489 608.547 241.406 602.347 236.822Z" fill="#FFC000" fill-rule="evenodd"/><path d="M538.813 207.652C545.213 203.068 559.361 201.818 563.066 209.735 566.771 217.653 558.687 232.238 552.287 236.822 545.887 241.406 537.466 238.489 533.761 230.571 530.055 222.653 532.413 212.235 538.813 207.652Z" fill="#FFC000" fill-rule="evenodd"/><path d="M615.4 191.349C609.2 195.933 595.495 197.183 591.905 189.265 588.316 181.347 596.147 166.762 602.347 162.178 608.547 157.594 616.705 160.511 620.294 168.429 623.884 176.347 621.599 186.765 615.4 191.349Z" fill="#FFC000" fill-rule="evenodd"/><path d="M720 166C720 173.18 715.747 179 710.5 179 705.253 179 701 173.18 701 166 701 158.82 705.253 153 710.5 153 715.747 153 720 158.82 720 166Z" fill="#FFC000" fill-rule="evenodd"/><path d="M724 119.8C724 129.04 717.925 145 710.5 145 703.075 145 697 129.04 697 119.8 697 110.56 703.075 103 710.5 103 717.925 103 724 110.56 724 119.8Z" fill="#FFC000" fill-rule="evenodd"/><path d="M697 212.2C697 202.96 703.075 187 710.5 187 717.925 187 724 202.96 724 212.2 724 221.44 717.925 229 710.5 229 703.075 229 697 221.44 697 212.2Z" fill="#FFC000" fill-rule="evenodd"/><path d="M685.287 128.178C691.687 132.762 699.771 147.347 696.066 155.265 692.361 163.183 678.213 161.933 671.813 157.349 665.413 152.765 663.056 142.347 666.761 134.429 670.466 126.511 678.887 123.594 685.287 128.178Z" fill="#FFC000" fill-rule="evenodd"/><path d="M735.713 203.822C729.313 199.238 721.229 184.653 724.934 176.735 728.639 168.818 742.787 170.068 749.187 174.652 755.587 179.235 757.945 189.653 754.239 197.571 750.534 205.489 742.113 208.406 735.713 203.822Z" fill="#FFC000" fill-rule="evenodd"/><path d="M671.813 174.652C678.213 170.068 692.361 168.818 696.066 176.735 699.771 184.653 691.687 199.238 685.287 203.822 678.887 208.406 670.466 205.489 666.761 197.571 663.056 189.653 665.413 179.235 671.813 174.652Z" fill="#FFC000" fill-rule="evenodd"/><path d="M752.4 159.244C746.2 163.959 732.495 165.245 728.905 157.101 725.316 148.957 733.147 133.956 739.347 129.241 745.547 124.526 753.705 127.526 757.294 135.67 760.884 143.814 758.599 154.529 752.4 159.244Z" fill="#FFC000" fill-rule="evenodd"/><text fill="#1F4E79" font-family="Script MT,Script MT_MSFontService,sans-serif" font-weight="700" font-size="64" transform="translate(450.467 592)">Botany Essential</text></g></svg>